<mxfile host="65bd71144e">
    <diagram id="znz1fb3hUo9amOeo-X0s" name="Page-1">
        <mxGraphModel dx="990" dy="575" grid="1" gridSize="10" guides="1" tooltips="1" connect="1" arrows="1" fold="1" page="1" pageScale="1" pageWidth="1100" pageHeight="850" math="0" shadow="0">
            <root>
                <mxCell id="0"/>
                <mxCell id="1" parent="0"/>
                <mxCell id="44" value="&lt;font style=&quot;font-size: 20px&quot;&gt;more chats appear here when occur&lt;/font&gt;" style="text;html=1;strokeColor=#6c8ebf;fillColor=#dae8fc;align=center;verticalAlign=middle;whiteSpace=wrap;rounded=0;gradientColor=#7ea6e0;fontStyle=1;fontColor=#000000;" parent="1" vertex="1">
                    <mxGeometry x="120" y="296" width="160" height="344" as="geometry"/>
                </mxCell>
                <mxCell id="45" value="&lt;span style=&quot;font-size: 20px&quot;&gt;more jobs appear here when hired&lt;/span&gt;" style="text;html=1;strokeColor=#6c8ebf;fillColor=#dae8fc;align=center;verticalAlign=middle;whiteSpace=wrap;rounded=0;gradientColor=#7ea6e0;fontStyle=1;fontColor=#000000;" parent="1" vertex="1">
                    <mxGeometry x="640" y="284" width="160" height="356" as="geometry"/>
                </mxCell>
                <mxCell id="2" value="" style="endArrow=none;html=1;fillColor=#dae8fc;strokeColor=#6c8ebf;gradientColor=#7ea6e0;fontStyle=1;fontColor=#000000;" parent="1" edge="1">
                    <mxGeometry width="50" height="50" relative="1" as="geometry">
                        <mxPoint x="120" y="640" as="sourcePoint"/>
                        <mxPoint x="120" y="130" as="targetPoint"/>
                    </mxGeometry>
                </mxCell>
                <mxCell id="3" value="" style="endArrow=none;html=1;fillColor=#dae8fc;strokeColor=#6c8ebf;gradientColor=#7ea6e0;fontStyle=1;fontColor=#000000;" parent="1" edge="1">
                    <mxGeometry width="50" height="50" relative="1" as="geometry">
                        <mxPoint x="800" y="640" as="sourcePoint"/>
                        <mxPoint x="800" y="130" as="targetPoint"/>
                    </mxGeometry>
                </mxCell>
                <mxCell id="4" value="" style="endArrow=none;html=1;fillColor=#dae8fc;strokeColor=#6c8ebf;gradientColor=#7ea6e0;fontStyle=1;fontColor=#000000;" parent="1" edge="1">
                    <mxGeometry width="50" height="50" relative="1" as="geometry">
                        <mxPoint x="120" y="640" as="sourcePoint"/>
                        <mxPoint x="800" y="640" as="targetPoint"/>
                    </mxGeometry>
                </mxCell>
                <mxCell id="5" value="" style="endArrow=none;html=1;fillColor=#dae8fc;strokeColor=#6c8ebf;gradientColor=#7ea6e0;fontStyle=1;fontColor=#000000;" parent="1" edge="1">
                    <mxGeometry width="50" height="50" relative="1" as="geometry">
                        <mxPoint x="800" y="130" as="sourcePoint"/>
                        <mxPoint x="120" y="130" as="targetPoint"/>
                    </mxGeometry>
                </mxCell>
                <mxCell id="6" value="" style="endArrow=none;html=1;fillColor=#dae8fc;strokeColor=#6c8ebf;gradientColor=#7ea6e0;fontStyle=1;fontColor=#000000;" parent="1" edge="1">
                    <mxGeometry width="50" height="50" relative="1" as="geometry">
                        <mxPoint x="800" y="180" as="sourcePoint"/>
                        <mxPoint x="120" y="180" as="targetPoint"/>
                    </mxGeometry>
                </mxCell>
                <mxCell id="7" value="Event Reel" style="swimlane;fontStyle=1;childLayout=stackLayout;horizontal=1;startSize=26;horizontalStack=0;resizeParent=1;resizeParentMax=0;resizeLast=0;collapsible=1;marginBottom=0;fillColor=#dae8fc;strokeColor=#6c8ebf;gradientColor=#7ea6e0;fontColor=#000000;" parent="1" vertex="1">
                    <mxGeometry x="280" y="230" width="360" height="410" as="geometry"/>
                </mxCell>
                <mxCell id="8" value="Reel Post&#10;Message&#10;Photo (video in later version)" style="text;strokeColor=#6c8ebf;fillColor=#dae8fc;align=center;verticalAlign=top;spacingLeft=4;spacingRight=4;overflow=hidden;rotatable=0;points=[[0,0.5],[1,0.5]];portConstraint=eastwest;gradientColor=#7ea6e0;fontStyle=1;fontColor=#000000;" parent="7" vertex="1">
                    <mxGeometry y="26" width="360" height="134" as="geometry"/>
                </mxCell>
                <mxCell id="9" value="Reel Post&#10;Message&#10;Photo (video in later version)" style="text;strokeColor=#6c8ebf;fillColor=#dae8fc;align=center;verticalAlign=top;spacingLeft=4;spacingRight=4;overflow=hidden;rotatable=0;points=[[0,0.5],[1,0.5]];portConstraint=eastwest;gradientColor=#7ea6e0;fontStyle=1;fontColor=#000000;" parent="7" vertex="1">
                    <mxGeometry y="160" width="360" height="150" as="geometry"/>
                </mxCell>
                <mxCell id="10" value="Reel Post&#10;Message&#10;Photo (video in later version)" style="text;strokeColor=#6c8ebf;fillColor=#dae8fc;align=center;verticalAlign=top;spacingLeft=4;spacingRight=4;overflow=hidden;rotatable=0;points=[[0,0.5],[1,0.5]];portConstraint=eastwest;gradientColor=#7ea6e0;fontStyle=1;fontColor=#000000;" parent="7" vertex="1">
                    <mxGeometry y="310" width="360" height="100" as="geometry"/>
                </mxCell>
                <mxCell id="17" value="" style="rounded=0;whiteSpace=wrap;html=1;fillColor=#dae8fc;strokeColor=#6c8ebf;gradientColor=#7ea6e0;fontStyle=1;fontColor=#000000;" parent="1" vertex="1">
                    <mxGeometry x="280" y="180" width="360" height="50" as="geometry"/>
                </mxCell>
                <mxCell id="18" value="user" style="ellipse;whiteSpace=wrap;html=1;aspect=fixed;fillColor=#dae8fc;strokeColor=#6c8ebf;gradientColor=#7ea6e0;fontStyle=1;fontColor=#000000;" parent="1" vertex="1">
                    <mxGeometry x="288" y="185" width="40" height="40" as="geometry"/>
                </mxCell>
                <mxCell id="23" value="Chat" style="swimlane;fontStyle=1;childLayout=stackLayout;horizontal=1;startSize=26;horizontalStack=0;resizeParent=1;resizeParentMax=0;resizeLast=0;collapsible=1;marginBottom=0;align=center;fillColor=#dae8fc;strokeColor=#6c8ebf;gradientColor=#7ea6e0;fontColor=#000000;" parent="1" vertex="1">
                    <mxGeometry x="120" y="180" width="160" height="170" as="geometry"/>
                </mxCell>
                <mxCell id="24" value="             Chat message&#10;             Time" style="text;strokeColor=#6c8ebf;fillColor=#dae8fc;align=left;verticalAlign=top;spacingLeft=4;spacingRight=4;overflow=hidden;rotatable=0;points=[[0,0.5],[1,0.5]];portConstraint=eastwest;gradientColor=#7ea6e0;fontStyle=1;fontColor=#000000;" parent="23" vertex="1">
                    <mxGeometry y="26" width="160" height="44" as="geometry"/>
                </mxCell>
                <mxCell id="25" value="             Chat message&#10;             Time" style="text;strokeColor=#6c8ebf;fillColor=#dae8fc;align=left;verticalAlign=top;spacingLeft=4;spacingRight=4;overflow=hidden;rotatable=0;points=[[0,0.5],[1,0.5]];portConstraint=eastwest;gradientColor=#7ea6e0;fontStyle=1;fontColor=#000000;" parent="23" vertex="1">
                    <mxGeometry y="70" width="160" height="50" as="geometry"/>
                </mxCell>
                <mxCell id="26" value="             Chat message&#10;             Time" style="text;strokeColor=#6c8ebf;fillColor=#dae8fc;align=left;verticalAlign=top;spacingLeft=4;spacingRight=4;overflow=hidden;rotatable=0;points=[[0,0.5],[1,0.5]];portConstraint=eastwest;gradientColor=#7ea6e0;fontStyle=1;fontColor=#000000;" parent="23" vertex="1">
                    <mxGeometry y="120" width="160" height="50" as="geometry"/>
                </mxCell>
                <mxCell id="27" value="&lt;font style=&quot;font-size: 20px&quot;&gt;Wurklo&lt;/font&gt;" style="text;html=1;strokeColor=#6c8ebf;fillColor=#dae8fc;align=center;verticalAlign=middle;whiteSpace=wrap;rounded=0;gradientColor=#7ea6e0;fontStyle=1;fontColor=#000000;" parent="1" vertex="1">
                    <mxGeometry x="120" y="130" width="160" height="50" as="geometry"/>
                </mxCell>
                <mxCell id="29" value="Post a Job, Project, or Reel content" style="rounded=1;whiteSpace=wrap;html=1;align=center;fillColor=#dae8fc;strokeColor=#6c8ebf;gradientColor=#7ea6e0;fontStyle=1;fontColor=#000000;" parent="1" vertex="1">
                    <mxGeometry x="335" y="188" width="250" height="35" as="geometry"/>
                </mxCell>
                <mxCell id="30" value="add image" style="rounded=1;whiteSpace=wrap;html=1;align=center;arcSize=28;fillColor=#dae8fc;strokeColor=#6c8ebf;gradientColor=#7ea6e0;fontStyle=1;fontColor=#000000;" parent="1" vertex="1">
                    <mxGeometry x="593" y="185" width="40" height="40" as="geometry"/>
                </mxCell>
                <mxCell id="31" value="Schedule" style="swimlane;fontStyle=1;childLayout=stackLayout;horizontal=1;startSize=26;horizontalStack=0;resizeParent=1;resizeParentMax=0;resizeLast=0;collapsible=1;marginBottom=0;align=center;fillColor=#dae8fc;strokeColor=#6c8ebf;gradientColor=#7ea6e0;fontColor=#000000;" parent="1" vertex="1">
                    <mxGeometry x="640" y="180" width="160" height="170" as="geometry"/>
                </mxCell>
                <mxCell id="32" value="Job name&#10;Time" style="text;strokeColor=#6c8ebf;fillColor=#dae8fc;align=center;verticalAlign=top;spacingLeft=4;spacingRight=4;overflow=hidden;rotatable=0;points=[[0,0.5],[1,0.5]];portConstraint=eastwest;gradientColor=#7ea6e0;fontStyle=1;fontColor=#000000;" parent="31" vertex="1">
                    <mxGeometry y="26" width="160" height="44" as="geometry"/>
                </mxCell>
                <mxCell id="33" value="Job name&#10;Time" style="text;strokeColor=#6c8ebf;fillColor=#dae8fc;align=center;verticalAlign=top;spacingLeft=4;spacingRight=4;overflow=hidden;rotatable=0;points=[[0,0.5],[1,0.5]];portConstraint=eastwest;gradientColor=#7ea6e0;fontStyle=1;fontColor=#000000;" parent="31" vertex="1">
                    <mxGeometry y="70" width="160" height="50" as="geometry"/>
                </mxCell>
                <mxCell id="34" value="Job name&#10;Time" style="text;strokeColor=#6c8ebf;fillColor=#dae8fc;align=center;verticalAlign=top;spacingLeft=4;spacingRight=4;overflow=hidden;rotatable=0;points=[[0,0.5],[1,0.5]];portConstraint=eastwest;gradientColor=#7ea6e0;fontStyle=1;fontColor=#000000;" parent="31" vertex="1">
                    <mxGeometry y="120" width="160" height="50" as="geometry"/>
                </mxCell>
                <mxCell id="36" value="&amp;nbsp; &amp;nbsp; &amp;nbsp; User name" style="text;html=1;strokeColor=#6c8ebf;fillColor=#dae8fc;align=center;verticalAlign=middle;whiteSpace=wrap;rounded=0;gradientColor=#7ea6e0;fontStyle=1;fontColor=#000000;" parent="1" vertex="1">
                    <mxGeometry x="640" y="130" width="160" height="50" as="geometry"/>
                </mxCell>
                <mxCell id="37" value="Home Icon" style="rounded=1;whiteSpace=wrap;html=1;align=center;fillColor=#dae8fc;strokeColor=#6c8ebf;fontStyle=1;fontColor=#000000;gradientColor=#19E083;" parent="1" vertex="1">
                    <mxGeometry x="280" y="130" width="90" height="50" as="geometry"/>
                </mxCell>
                <mxCell id="38" value="Profile Icon" style="rounded=1;whiteSpace=wrap;html=1;align=center;fillColor=#dae8fc;strokeColor=#6c8ebf;gradientColor=#7ea6e0;fontStyle=1;fontColor=#000000;" parent="1" vertex="1">
                    <mxGeometry x="370" y="130" width="80" height="50" as="geometry"/>
                </mxCell>
                <mxCell id="39" value="Search Wurkers Icon" style="rounded=1;whiteSpace=wrap;html=1;align=center;fillColor=#dae8fc;strokeColor=#6c8ebf;gradientColor=#7ea6e0;fontStyle=1;fontColor=#000000;" parent="1" vertex="1">
                    <mxGeometry x="450" y="130" width="90" height="50" as="geometry"/>
                </mxCell>
                <mxCell id="40" value="Search Projects Icon" style="rounded=1;whiteSpace=wrap;html=1;align=center;fillColor=#dae8fc;strokeColor=#6c8ebf;gradientColor=#7ea6e0;fontStyle=1;fontColor=#000000;" parent="1" vertex="1">
                    <mxGeometry x="540" y="130" width="100" height="50" as="geometry"/>
                </mxCell>
                <mxCell id="35" value="user" style="ellipse;whiteSpace=wrap;html=1;aspect=fixed;fillColor=#dae8fc;strokeColor=#6c8ebf;gradientColor=#7ea6e0;fontStyle=1;fontColor=#000000;" parent="1" vertex="1">
                    <mxGeometry x="650" y="135" width="40" height="40" as="geometry"/>
                </mxCell>
                <mxCell id="46" value="user" style="ellipse;whiteSpace=wrap;html=1;aspect=fixed;fillColor=#dae8fc;strokeColor=#6c8ebf;gradientColor=#7ea6e0;fontStyle=1;fontColor=#000000;" vertex="1" parent="1">
                    <mxGeometry x="285" y="262" width="40" height="40" as="geometry"/>
                </mxCell>
                <mxCell id="47" value="user" style="ellipse;whiteSpace=wrap;html=1;aspect=fixed;fillColor=#dae8fc;strokeColor=#6c8ebf;gradientColor=#7ea6e0;fontStyle=1;fontColor=#000000;" vertex="1" parent="1">
                    <mxGeometry x="283" y="393" width="40" height="40" as="geometry"/>
                </mxCell>
                <mxCell id="48" value="user" style="ellipse;whiteSpace=wrap;html=1;aspect=fixed;fillColor=#dae8fc;strokeColor=#6c8ebf;gradientColor=#7ea6e0;fontStyle=1;fontColor=#000000;" vertex="1" parent="1">
                    <mxGeometry x="284" y="544" width="40" height="40" as="geometry"/>
                </mxCell>
                <mxCell id="49" value="user" style="ellipse;whiteSpace=wrap;html=1;aspect=fixed;fillColor=#dae8fc;strokeColor=#6c8ebf;gradientColor=#7ea6e0;fontStyle=1;fontColor=#000000;" vertex="1" parent="1">
                    <mxGeometry x="643" y="208" width="40" height="40" as="geometry"/>
                </mxCell>
                <mxCell id="50" value="user" style="ellipse;whiteSpace=wrap;html=1;aspect=fixed;fillColor=#dae8fc;strokeColor=#6c8ebf;gradientColor=#7ea6e0;fontStyle=1;fontColor=#000000;" vertex="1" parent="1">
                    <mxGeometry x="643" y="254" width="40" height="40" as="geometry"/>
                </mxCell>
                <mxCell id="51" value="user" style="ellipse;whiteSpace=wrap;html=1;aspect=fixed;fillColor=#dae8fc;strokeColor=#6c8ebf;gradientColor=#7ea6e0;fontStyle=1;fontColor=#000000;" vertex="1" parent="1">
                    <mxGeometry x="644" y="304" width="40" height="40" as="geometry"/>
                </mxCell>
                <mxCell id="52" value="user" style="ellipse;whiteSpace=wrap;html=1;aspect=fixed;fillColor=#dae8fc;strokeColor=#6c8ebf;gradientColor=#7ea6e0;fontStyle=1;fontColor=#000000;" vertex="1" parent="1">
                    <mxGeometry x="124" y="208" width="40" height="40" as="geometry"/>
                </mxCell>
                <mxCell id="53" value="user" style="ellipse;whiteSpace=wrap;html=1;aspect=fixed;fillColor=#dae8fc;strokeColor=#6c8ebf;gradientColor=#7ea6e0;fontStyle=1;fontColor=#000000;" vertex="1" parent="1">
                    <mxGeometry x="124" y="254" width="40" height="40" as="geometry"/>
                </mxCell>
                <mxCell id="54" value="user" style="ellipse;whiteSpace=wrap;html=1;aspect=fixed;fillColor=#dae8fc;strokeColor=#6c8ebf;gradientColor=#7ea6e0;fontStyle=1;fontColor=#000000;" vertex="1" parent="1">
                    <mxGeometry x="124" y="305" width="40" height="40" as="geometry"/>
                </mxCell>
            </root>
        </mxGraphModel>
    </diagram>
</mxfile>